STARTFONT 2.1
COMMENT Font converted from FNT/FON to BDF.
FONT -Windows-TopazPlus a600a1200a4000 v1.0-Medium-R-Normal--16-120-96-96-P-80-ISO8859-1
SIZE 12 96 96
FONTBOUNDINGBOX 8 16 0 -3
STARTPROPERTIES 16
FOUNDRY "Windows"
FAMILY_NAME "TopazPlus a600a1200a4000 v1.0"
WEIGHT_NAME "Medium"
SLANT "R"
SETWIDTH_NAME "Normal"
PIXEL_SIZE 16
POINT_SIZE 120
RESOLUTION_X 96
RESOLUTION_Y 96
FONT_ASCENT 13
FONT_DESCENT -3
AVERAGE_WIDTH 80
SPACING "P"
CHARSET_REGISTRY "ISO8859"
CHARSET_ENCODING "1"
_GBDFED_INFO "Edited with gbdfed 1.6."
ENDPROPERTIES
CHARS 255
STARTCHAR char1
ENCODING 1
SWIDTH 44 0
DWIDTH 8 0
BBX 8 16 0 -3
BITMAP
83
83
39
39
21
21
29
29
21
21
3F
3F
87
87
FF
FF
ENDCHAR
STARTCHAR char2
ENCODING 2
SWIDTH 44 0
DWIDTH 8 0
BBX 8 16 0 -3
BITMAP
C3
C3
99
99
99
99
81
81
99
99
99
99
99
99
FF
FF
ENDCHAR
STARTCHAR char3
ENCODING 3
SWIDTH 44 0
DWIDTH 8 0
BBX 8 16 0 -3
BITMAP
83
83
99
99
99
99
83
83
99
99
99
99
83
83
FF
FF
ENDCHAR
STARTCHAR char4
ENCODING 4
SWIDTH 44 0
DWIDTH 8 0
BBX 8 16 0 -3
BITMAP
E1
E1
CF
CF
9F
9F
9F
9F
9F
9F
CF
CF
E1
E1
FF
FF
ENDCHAR
STARTCHAR char5
ENCODING 5
SWIDTH 44 0
DWIDTH 8 0
BBX 8 16 0 -3
BITMAP
87
87
93
93
99
99
99
99
99
99
93
93
87
87
FF
FF
ENDCHAR
STARTCHAR char6
ENCODING 6
SWIDTH 44 0
DWIDTH 8 0
BBX 8 16 0 -3
BITMAP
81
81
9F
9F
9F
9F
87
87
9F
9F
9F
9F
81
81
FF
FF
ENDCHAR
STARTCHAR char7
ENCODING 7
SWIDTH 44 0
DWIDTH 8 0
BBX 8 16 0 -3
BITMAP
81
81
9F
9F
9F
9F
87
87
9F
9F
9F
9F
9F
9F
FF
FF
ENDCHAR
STARTCHAR char8
ENCODING 8
SWIDTH 44 0
DWIDTH 8 0
BBX 8 16 0 -3
BITMAP
C3
C3
99
99
9F
9F
91
91
99
99
99
99
C1
C1
FF
FF
ENDCHAR
STARTCHAR char9
ENCODING 9
SWIDTH 44 0
DWIDTH 8 0
BBX 8 16 0 -3
BITMAP
99
99
99
99
99
99
81
81
99
99
99
99
99
99
FF
FF
ENDCHAR
STARTCHAR char10
ENCODING 10
SWIDTH 44 0
DWIDTH 8 0
BBX 8 16 0 -3
BITMAP
C3
C3
E7
E7
E7
E7
E7
E7
E7
E7
E7
E7
C3
C3
FF
FF
ENDCHAR
STARTCHAR char11
ENCODING 11
SWIDTH 44 0
DWIDTH 8 0
BBX 8 16 0 -3
BITMAP
F9
F9
F9
F9
F9
F9
F9
F9
F9
F9
99
99
C3
C3
FF
FF
ENDCHAR
STARTCHAR char12
ENCODING 12
SWIDTH 44 0
DWIDTH 8 0
BBX 8 16 0 -3
BITMAP
9C
9C
99
99
93
93
87
87
93
93
99
99
9C
9C
FF
FF
ENDCHAR
STARTCHAR char13
ENCODING 13
SWIDTH 44 0
DWIDTH 8 0
BBX 8 16 0 -3
BITMAP
9F
9F
9F
9F
9F
9F
9F
9F
9F
9F
9F
9F
81
81
FF
FF
ENDCHAR
STARTCHAR char14
ENCODING 14
SWIDTH 44 0
DWIDTH 8 0
BBX 8 16 0 -3
BITMAP
9C
9C
88
88
80
80
94
94
9C
9C
9C
9C
9C
9C
FF
FF
ENDCHAR
STARTCHAR char15
ENCODING 15
SWIDTH 44 0
DWIDTH 8 0
BBX 8 16 0 -3
BITMAP
9C
9C
8C
8C
84
84
90
90
98
98
9C
9C
9C
9C
FF
FF
ENDCHAR
STARTCHAR char16
ENCODING 16
SWIDTH 44 0
DWIDTH 8 0
BBX 8 16 0 -3
BITMAP
C3
C3
99
99
99
99
99
99
99
99
99
99
C3
C3
FF
FF
ENDCHAR
STARTCHAR char17
ENCODING 17
SWIDTH 44 0
DWIDTH 8 0
BBX 8 16 0 -3
BITMAP
83
83
99
99
99
99
83
83
9F
9F
9F
9F
9F
9F
FF
FF
ENDCHAR
STARTCHAR char18
ENCODING 18
SWIDTH 44 0
DWIDTH 8 0
BBX 8 16 0 -3
BITMAP
C3
C3
99
99
99
99
99
99
99
99
91
91
C0
C0
FF
FF
ENDCHAR
STARTCHAR char19
ENCODING 19
SWIDTH 44 0
DWIDTH 8 0
BBX 8 16 0 -3
BITMAP
83
83
99
99
99
99
83
83
93
93
99
99
99
99
FF
FF
ENDCHAR
STARTCHAR char20
ENCODING 20
SWIDTH 44 0
DWIDTH 8 0
BBX 8 16 0 -3
BITMAP
C3
C3
99
99
8F
8F
C3
C3
F1
F1
99
99
C3
C3
FF
FF
ENDCHAR
STARTCHAR char21
ENCODING 21
SWIDTH 44 0
DWIDTH 8 0
BBX 8 16 0 -3
BITMAP
81
81
E7
E7
E7
E7
E7
E7
E7
E7
E7
E7
E7
E7
FF
FF
ENDCHAR
STARTCHAR char22
ENCODING 22
SWIDTH 44 0
DWIDTH 8 0
BBX 8 16 0 -3
BITMAP
99
99
99
99
99
99
99
99
99
99
99
99
C3
C3
FF
FF
ENDCHAR
STARTCHAR char23
ENCODING 23
SWIDTH 44 0
DWIDTH 8 0
BBX 8 16 0 -3
BITMAP
99
99
99
99
99
99
99
99
99
81
C3
C3
E7
E7
FF
FF
ENDCHAR
STARTCHAR char24
ENCODING 24
SWIDTH 44 0
DWIDTH 8 0
BBX 8 16 0 -3
BITMAP
9C
9C
9C
9C
9C
9C
94
94
80
80
88
88
9C
9C
FF
FF
ENDCHAR
STARTCHAR char25
ENCODING 25
SWIDTH 44 0
DWIDTH 8 0
BBX 8 16 0 -3
BITMAP
3C
3C
99
99
C3
C3
E7
E7
C3
C3
99
99
3C
3C
FF
FF
ENDCHAR
STARTCHAR char26
ENCODING 26
SWIDTH 44 0
DWIDTH 8 0
BBX 8 16 0 -3
BITMAP
3C
3C
99
99
C3
C3
E7
E7
E7
E7
E7
E7
E7
E7
FF
FF
ENDCHAR
STARTCHAR char27
ENCODING 27
SWIDTH 44 0
DWIDTH 8 0
BBX 8 16 0 -3
BITMAP
80
80
F9
F9
F3
F3
E7
E7
CF
CF
9F
9F
80
80
FF
FF
ENDCHAR
STARTCHAR char28
ENCODING 28
SWIDTH 44 0
DWIDTH 8 0
BBX 8 16 0 -3
BITMAP
C3
C0
CF
CF
CF
CF
CF
CF
CF
CF
CF
CF
C0
C3
FF
FF
ENDCHAR
STARTCHAR char29
ENCODING 29
SWIDTH 44 0
DWIDTH 8 0
BBX 8 16 0 -3
BITMAP
3F
3F
9F
9F
CF
CF
E7
E7
F3
F3
F9
F9
FC
FC
FE
FE
ENDCHAR
STARTCHAR char30
ENCODING 30
SWIDTH 44 0
DWIDTH 8 0
BBX 8 16 0 -3
BITMAP
C3
03
F3
F3
F3
F3
F3
F3
F3
F3
F3
F3
03
C3
FF
FF
ENDCHAR
STARTCHAR char31
ENCODING 31
SWIDTH 44 0
DWIDTH 8 0
BBX 8 16 0 -3
BITMAP
F7
F7
E3
E3
C9
C9
9C
9C
FF
FF
FF
FF
FF
FF
FF
FF
ENDCHAR
STARTCHAR char32
ENCODING 32
SWIDTH 44 0
DWIDTH 8 0
BBX 0 0 0 0
BITMAP
ENDCHAR
STARTCHAR char33
ENCODING 33
SWIDTH 44 0
DWIDTH 8 0
BBX 2 14 3 -1
BITMAP
C0
C0
C0
C0
C0
C0
C0
C0
C0
C0
00
00
C0
C0
ENDCHAR
STARTCHAR char34
ENCODING 34
SWIDTH 44 0
DWIDTH 8 0
BBX 5 4 1 9
BITMAP
D8
D8
D8
D8
ENDCHAR
STARTCHAR char35
ENCODING 35
SWIDTH 44 0
DWIDTH 8 0
BBX 7 14 0 -1
BITMAP
6C
6C
6C
6C
FE
FE
6C
6C
FE
FE
6C
6C
6C
6C
ENDCHAR
STARTCHAR char36
ENCODING 36
SWIDTH 44 0
DWIDTH 8 0
BBX 6 14 1 -1
BITMAP
30
30
7C
7C
C0
C0
78
78
0C
0C
F8
F8
30
30
ENDCHAR
STARTCHAR char37
ENCODING 37
SWIDTH 44 0
DWIDTH 8 0
BBX 8 14 0 -1
BITMAP
03
03
66
66
AC
AC
D8
D8
36
36
6A
6A
CC
CC
ENDCHAR
STARTCHAR char38
ENCODING 38
SWIDTH 44 0
DWIDTH 8 0
BBX 8 14 0 -1
BITMAP
38
38
6C
6C
68
68
76
76
DC
DC
CE
CE
7B
7B
ENDCHAR
STARTCHAR char39
ENCODING 39
SWIDTH 44 0
DWIDTH 8 0
BBX 3 6 2 7
BITMAP
60
60
60
60
C0
C0
ENDCHAR
STARTCHAR char40
ENCODING 40
SWIDTH 44 0
DWIDTH 8 0
BBX 5 14 3 -1
BITMAP
18
38
70
60
C0
C0
C0
C0
C0
C0
60
70
38
18
ENDCHAR
STARTCHAR char41
ENCODING 41
SWIDTH 44 0
DWIDTH 8 0
BBX 5 14 0 -1
BITMAP
C0
E0
70
30
18
18
18
18
18
18
30
70
E0
C0
ENDCHAR
STARTCHAR char42
ENCODING 42
SWIDTH 44 0
DWIDTH 8 0
BBX 8 10 0 1
BITMAP
66
66
3C
3C
FF
FF
3C
3C
66
66
ENDCHAR
STARTCHAR char43
ENCODING 43
SWIDTH 44 0
DWIDTH 8 0
BBX 6 10 1 1
BITMAP
30
30
30
30
FC
FC
30
30
30
30
ENDCHAR
STARTCHAR char44
ENCODING 44
SWIDTH 44 0
DWIDTH 8 0
BBX 3 6 2 -3
BITMAP
60
60
60
60
C0
C0
ENDCHAR
STARTCHAR char45
ENCODING 45
SWIDTH 44 0
DWIDTH 8 0
BBX 8 2 0 5
BITMAP
FF
FF
ENDCHAR
STARTCHAR char46
ENCODING 46
SWIDTH 44 0
DWIDTH 8 0
BBX 2 4 3 -1
BITMAP
C0
C0
C0
C0
ENDCHAR
STARTCHAR char47
ENCODING 47
SWIDTH 44 0
DWIDTH 8 0
BBX 8 16 0 -3
BITMAP
03
03
06
06
0C
0C
18
18
30
30
60
60
C0
C0
80
80
ENDCHAR
STARTCHAR char48
ENCODING 48
SWIDTH 44 0
DWIDTH 8 0
BBX 6 14 1 -1
BITMAP
78
78
CC
CC
DC
DC
FC
FC
EC
EC
CC
CC
78
78
ENDCHAR
STARTCHAR char49
ENCODING 49
SWIDTH 44 0
DWIDTH 8 0
BBX 4 14 1 -1
BITMAP
30
30
70
70
F0
F0
30
30
30
30
30
30
30
30
ENDCHAR
STARTCHAR char50
ENCODING 50
SWIDTH 44 0
DWIDTH 8 0
BBX 6 14 1 -1
BITMAP
78
78
CC
CC
0C
0C
18
18
30
30
60
60
FC
FC
ENDCHAR
STARTCHAR char51
ENCODING 51
SWIDTH 44 0
DWIDTH 8 0
BBX 6 14 1 -1
BITMAP
78
78
CC
CC
0C
0C
38
38
0C
0C
CC
CC
78
78
ENDCHAR
STARTCHAR char52
ENCODING 52
SWIDTH 44 0
DWIDTH 8 0
BBX 7 14 0 -1
BITMAP
1C
1C
3C
3C
6C
6C
CC
CC
FE
FE
0C
0C
0C
0C
ENDCHAR
STARTCHAR char53
ENCODING 53
SWIDTH 44 0
DWIDTH 8 0
BBX 6 14 1 -1
BITMAP
FC
FC
C0
C0
F8
F8
0C
0C
0C
0C
CC
CC
78
78
ENDCHAR
STARTCHAR char54
ENCODING 54
SWIDTH 44 0
DWIDTH 8 0
BBX 6 14 1 -1
BITMAP
38
38
60
60
C0
C0
F8
F8
CC
CC
CC
CC
78
78
ENDCHAR
STARTCHAR char55
ENCODING 55
SWIDTH 44 0
DWIDTH 8 0
BBX 6 14 1 -1
BITMAP
FC
FC
0C
0C
0C
0C
18
18
30
30
30
30
30
30
ENDCHAR
STARTCHAR char56
ENCODING 56
SWIDTH 44 0
DWIDTH 8 0
BBX 6 14 1 -1
BITMAP
78
78
CC
CC
CC
CC
78
78
CC
CC
CC
CC
78
78
ENDCHAR
STARTCHAR char57
ENCODING 57
SWIDTH 44 0
DWIDTH 8 0
BBX 6 14 1 -1
BITMAP
78
78
CC
CC
CC
CC
7C
7C
0C
0C
18
18
70
70
ENDCHAR
STARTCHAR char58
ENCODING 58
SWIDTH 44 0
DWIDTH 8 0
BBX 2 12 3 -1
BITMAP
C0
C0
C0
C0
00
00
00
00
C0
C0
C0
C0
ENDCHAR
STARTCHAR char59
ENCODING 59
SWIDTH 44 0
DWIDTH 8 0
BBX 3 14 2 -3
BITMAP
60
60
60
60
00
00
00
00
60
60
60
60
C0
C0
ENDCHAR
STARTCHAR char60
ENCODING 60
SWIDTH 44 0
DWIDTH 8 0
BBX 5 14 3 -1
BITMAP
18
18
30
30
60
60
C0
C0
60
60
30
30
18
18
ENDCHAR
STARTCHAR char61
ENCODING 61
SWIDTH 44 0
DWIDTH 8 0
BBX 8 6 0 3
BITMAP
FF
FF
00
00
FF
FF
ENDCHAR
STARTCHAR char62
ENCODING 62
SWIDTH 44 0
DWIDTH 8 0
BBX 5 14 0 -1
BITMAP
C0
C0
60
60
30
30
18
18
30
30
60
60
C0
C0
ENDCHAR
STARTCHAR char63
ENCODING 63
SWIDTH 44 0
DWIDTH 8 0
BBX 6 14 1 -1
BITMAP
78
78
CC
CC
0C
0C
18
18
30
30
00
00
30
30
ENDCHAR
STARTCHAR char64
ENCODING 64
SWIDTH 44 0
DWIDTH 8 0
BBX 7 14 0 -1
BITMAP
7C
7C
C6
C6
DE
DE
D6
D6
DE
DE
C0
C0
78
78
ENDCHAR
STARTCHAR char65
ENCODING 65
SWIDTH 44 0
DWIDTH 8 0
BBX 6 14 1 -1
BITMAP
78
78
CC
CC
CC
CC
FC
FC
CC
CC
CC
CC
CC
CC
ENDCHAR
STARTCHAR char66
ENCODING 66
SWIDTH 44 0
DWIDTH 8 0
BBX 6 14 1 -1
BITMAP
F8
F8
CC
CC
CC
CC
F8
F8
CC
CC
CC
CC
F8
F8
ENDCHAR
STARTCHAR char67
ENCODING 67
SWIDTH 44 0
DWIDTH 8 0
BBX 6 14 1 -1
BITMAP
3C
3C
60
60
C0
C0
C0
C0
C0
C0
60
60
3C
3C
ENDCHAR
STARTCHAR char68
ENCODING 68
SWIDTH 44 0
DWIDTH 8 0
BBX 6 14 1 -1
BITMAP
F0
F0
D8
D8
CC
CC
CC
CC
CC
CC
D8
D8
F0
F0
ENDCHAR
STARTCHAR char69
ENCODING 69
SWIDTH 44 0
DWIDTH 8 0
BBX 6 14 1 -1
BITMAP
FC
FC
C0
C0
C0
C0
F0
F0
C0
C0
C0
C0
FC
FC
ENDCHAR
STARTCHAR char70
ENCODING 70
SWIDTH 44 0
DWIDTH 8 0
BBX 6 14 1 -1
BITMAP
FC
FC
C0
C0
C0
C0
F0
F0
C0
C0
C0
C0
C0
C0
ENDCHAR
STARTCHAR char71
ENCODING 71
SWIDTH 44 0
DWIDTH 8 0
BBX 6 14 1 -1
BITMAP
78
78
CC
CC
C0
C0
DC
DC
CC
CC
CC
CC
7C
7C
ENDCHAR
STARTCHAR char72
ENCODING 72
SWIDTH 44 0
DWIDTH 8 0
BBX 6 14 1 -1
BITMAP
CC
CC
CC
CC
CC
CC
FC
FC
CC
CC
CC
CC
CC
CC
ENDCHAR
STARTCHAR char73
ENCODING 73
SWIDTH 44 0
DWIDTH 8 0
BBX 4 14 2 -1
BITMAP
F0
F0
60
60
60
60
60
60
60
60
60
60
F0
F0
ENDCHAR
STARTCHAR char74
ENCODING 74
SWIDTH 44 0
DWIDTH 8 0
BBX 6 14 1 -1
BITMAP
0C
0C
0C
0C
0C
0C
0C
0C
0C
0C
CC
CC
78
78
ENDCHAR
STARTCHAR char75
ENCODING 75
SWIDTH 44 0
DWIDTH 8 0
BBX 7 14 0 -1
BITMAP
C6
C6
CC
CC
D8
D8
F0
F0
D8
D8
CC
CC
C6
C6
ENDCHAR
STARTCHAR char76
ENCODING 76
SWIDTH 44 0
DWIDTH 8 0
BBX 6 14 1 -1
BITMAP
C0
C0
C0
C0
C0
C0
C0
C0
C0
C0
C0
C0
FC
FC
ENDCHAR
STARTCHAR char77
ENCODING 77
SWIDTH 44 0
DWIDTH 8 0
BBX 7 14 0 -1
BITMAP
C6
C6
EE
EE
FE
FE
D6
D6
C6
C6
C6
C6
C6
C6
ENDCHAR
STARTCHAR char78
ENCODING 78
SWIDTH 44 0
DWIDTH 8 0
BBX 7 14 0 -1
BITMAP
C6
C6
E6
E6
F6
F6
DE
DE
CE
CE
C6
C6
C6
C6
ENDCHAR
STARTCHAR char79
ENCODING 79
SWIDTH 44 0
DWIDTH 8 0
BBX 6 14 1 -1
BITMAP
78
78
CC
CC
CC
CC
CC
CC
CC
CC
CC
CC
78
78
ENDCHAR
STARTCHAR char80
ENCODING 80
SWIDTH 44 0
DWIDTH 8 0
BBX 6 14 1 -1
BITMAP
F8
F8
CC
CC
CC
CC
F8
F8
C0
C0
C0
C0
C0
C0
ENDCHAR
STARTCHAR char81
ENCODING 81
SWIDTH 44 0
DWIDTH 8 0
BBX 7 14 0 -1
BITMAP
78
78
CC
CC
CC
CC
CC
CC
CC
CC
DC
DC
7E
7E
ENDCHAR
STARTCHAR char82
ENCODING 82
SWIDTH 44 0
DWIDTH 8 0
BBX 6 14 1 -1
BITMAP
F8
F8
CC
CC
CC
CC
F8
F8
D8
D8
CC
CC
CC
CC
ENDCHAR
STARTCHAR char83
ENCODING 83
SWIDTH 44 0
DWIDTH 8 0
BBX 6 14 1 -1
BITMAP
78
78
CC
CC
E0
E0
78
78
1C
1C
CC
CC
78
78
ENDCHAR
STARTCHAR char84
ENCODING 84
SWIDTH 44 0
DWIDTH 8 0
BBX 6 14 1 -1
BITMAP
FC
FC
30
30
30
30
30
30
30
30
30
30
30
30
ENDCHAR
STARTCHAR char85
ENCODING 85
SWIDTH 44 0
DWIDTH 8 0
BBX 6 14 1 -1
BITMAP
CC
CC
CC
CC
CC
CC
CC
CC
CC
CC
CC
CC
78
78
ENDCHAR
STARTCHAR char86
ENCODING 86
SWIDTH 44 0
DWIDTH 8 0
BBX 6 14 1 -1
BITMAP
CC
CC
CC
CC
CC
CC
CC
CC
78
78
78
78
30
30
ENDCHAR
STARTCHAR char87
ENCODING 87
SWIDTH 44 0
DWIDTH 8 0
BBX 7 14 0 -1
BITMAP
C6
C6
C6
C6
C6
C6
D6
D6
FE
FE
EE
EE
C6
C6
ENDCHAR
STARTCHAR char88
ENCODING 88
SWIDTH 44 0
DWIDTH 8 0
BBX 8 14 0 -1
BITMAP
C3
C3
66
66
3C
3C
18
18
3C
3C
66
66
C3
C3
ENDCHAR
STARTCHAR char89
ENCODING 89
SWIDTH 44 0
DWIDTH 8 0
BBX 8 14 0 -1
BITMAP
C3
C3
66
66
3C
3C
18
18
18
18
18
18
18
18
ENDCHAR
STARTCHAR char90
ENCODING 90
SWIDTH 44 0
DWIDTH 8 0
BBX 7 14 0 -1
BITMAP
FE
FE
0C
0C
18
18
30
30
60
60
C0
C0
FE
FE
ENDCHAR
STARTCHAR char91
ENCODING 91
SWIDTH 44 0
DWIDTH 8 0
BBX 6 14 2 -1
BITMAP
F0
FC
C0
C0
C0
C0
C0
C0
C0
C0
C0
C0
FC
F0
ENDCHAR
STARTCHAR char92
ENCODING 92
SWIDTH 44 0
DWIDTH 8 0
BBX 8 16 0 -3
BITMAP
C0
C0
60
60
30
30
18
18
0C
0C
06
06
03
03
01
01
ENDCHAR
STARTCHAR char93
ENCODING 93
SWIDTH 44 0
DWIDTH 8 0
BBX 6 14 0 -1
BITMAP
3C
FC
0C
0C
0C
0C
0C
0C
0C
0C
0C
0C
FC
3C
ENDCHAR
STARTCHAR char94
ENCODING 94
SWIDTH 44 0
DWIDTH 8 0
BBX 7 8 0 5
BITMAP
10
10
38
38
6C
6C
C6
C6
ENDCHAR
STARTCHAR char95
ENCODING 95
SWIDTH 44 0
DWIDTH 8 0
BBX 8 2 0 -3
BITMAP
FF
FF
ENDCHAR
STARTCHAR char96
ENCODING 96
SWIDTH 44 0
DWIDTH 8 0
BBX 3 6 3 7
BITMAP
C0
C0
C0
C0
60
60
ENDCHAR
STARTCHAR char97
ENCODING 97
SWIDTH 44 0
DWIDTH 8 0
BBX 6 10 1 -1
BITMAP
78
78
0C
0C
7C
7C
CC
CC
7C
7C
ENDCHAR
STARTCHAR char98
ENCODING 98
SWIDTH 44 0
DWIDTH 8 0
BBX 6 14 1 -1
BITMAP
C0
C0
C0
C0
F8
F8
CC
CC
CC
CC
CC
CC
F8
F8
ENDCHAR
STARTCHAR char99
ENCODING 99
SWIDTH 44 0
DWIDTH 8 0
BBX 5 10 1 -1
BITMAP
78
78
C0
C0
C0
C0
C0
C0
78
78
ENDCHAR
STARTCHAR char100
ENCODING 100
SWIDTH 44 0
DWIDTH 8 0
BBX 6 14 1 -1
BITMAP
0C
0C
0C
0C
7C
7C
CC
CC
CC
CC
CC
CC
7C
7C
ENDCHAR
STARTCHAR char101
ENCODING 101
SWIDTH 44 0
DWIDTH 8 0
BBX 6 10 1 -1
BITMAP
78
78
CC
CC
FC
FC
C0
C0
78
78
ENDCHAR
STARTCHAR char102
ENCODING 102
SWIDTH 44 0
DWIDTH 8 0
BBX 5 14 1 -1
BITMAP
38
38
60
60
F8
F8
60
60
60
60
60
60
60
60
ENDCHAR
STARTCHAR char103
ENCODING 103
SWIDTH 44 0
DWIDTH 8 0
BBX 6 12 1 -3
BITMAP
7C
7C
CC
CC
CC
CC
7C
7C
0C
0C
78
78
ENDCHAR
STARTCHAR char104
ENCODING 104
SWIDTH 44 0
DWIDTH 8 0
BBX 6 14 1 -1
BITMAP
C0
C0
C0
C0
F8
F8
CC
CC
CC
CC
CC
CC
CC
CC
ENDCHAR
STARTCHAR char105
ENCODING 105
SWIDTH 44 0
DWIDTH 8 0
BBX 3 14 3 -1
BITMAP
C0
C0
00
00
C0
C0
C0
C0
C0
C0
C0
C0
60
60
ENDCHAR
STARTCHAR char106
ENCODING 106
SWIDTH 44 0
DWIDTH 8 0
BBX 8 16 0 -3
BITMAP
0C
0C
00
00
0C
0C
0C
0C
0C
0C
0C
0C
0C
0C
78
78
ENDCHAR
STARTCHAR char107
ENCODING 107
SWIDTH 44 0
DWIDTH 8 0
BBX 6 14 1 -1
BITMAP
C0
C0
C0
C0
CC
CC
D8
D8
F0
F0
D8
D8
CC
CC
ENDCHAR
STARTCHAR char108
ENCODING 108
SWIDTH 44 0
DWIDTH 8 0
BBX 3 14 3 -1
BITMAP
C0
C0
C0
C0
C0
C0
C0
C0
C0
C0
C0
C0
60
60
ENDCHAR
STARTCHAR char109
ENCODING 109
SWIDTH 44 0
DWIDTH 8 0
BBX 7 10 0 -1
BITMAP
EC
EC
FE
FE
D6
D6
C6
C6
C6
C6
ENDCHAR
STARTCHAR char110
ENCODING 110
SWIDTH 44 0
DWIDTH 8 0
BBX 6 10 1 -1
BITMAP
F8
F8
CC
CC
CC
CC
CC
CC
CC
CC
ENDCHAR
STARTCHAR char111
ENCODING 111
SWIDTH 44 0
DWIDTH 8 0
BBX 6 10 1 -1
BITMAP
78
78
CC
CC
CC
CC
CC
CC
78
78
ENDCHAR
STARTCHAR char112
ENCODING 112
SWIDTH 44 0
DWIDTH 8 0
BBX 6 12 1 -3
BITMAP
F8
F8
CC
CC
CC
CC
F8
F8
C0
C0
C0
C0
ENDCHAR
STARTCHAR char113
ENCODING 113
SWIDTH 44 0
DWIDTH 8 0
BBX 6 12 1 -3
BITMAP
7C
7C
CC
CC
CC
CC
7C
7C
0C
0C
0C
0C
ENDCHAR
STARTCHAR char114
ENCODING 114
SWIDTH 44 0
DWIDTH 8 0
BBX 6 10 1 -1
BITMAP
F8
F8
CC
CC
C0
C0
C0
C0
C0
C0
ENDCHAR
STARTCHAR char115
ENCODING 115
SWIDTH 44 0
DWIDTH 8 0
BBX 6 10 1 -1
BITMAP
78
78
C0
C0
78
78
0C
0C
F8
F8
ENDCHAR
STARTCHAR char116
ENCODING 116
SWIDTH 44 0
DWIDTH 8 0
BBX 5 14 1 -1
BITMAP
60
60
60
60
F8
F8
60
60
60
60
60
60
38
38
ENDCHAR
STARTCHAR char117
ENCODING 117
SWIDTH 44 0
DWIDTH 8 0
BBX 6 10 1 -1
BITMAP
CC
CC
CC
CC
CC
CC
CC
CC
7C
7C
ENDCHAR
STARTCHAR char118
ENCODING 118
SWIDTH 44 0
DWIDTH 8 0
BBX 6 10 1 -1
BITMAP
CC
CC
CC
CC
CC
CC
78
78
30
30
ENDCHAR
STARTCHAR char119
ENCODING 119
SWIDTH 44 0
DWIDTH 8 0
BBX 7 10 0 -1
BITMAP
C6
C6
C6
C6
D6
D6
FE
FE
6C
6C
ENDCHAR
STARTCHAR char120
ENCODING 120
SWIDTH 44 0
DWIDTH 8 0
BBX 7 10 0 -1
BITMAP
C6
C6
6C
6C
38
38
6C
6C
C6
C6
ENDCHAR
STARTCHAR char121
ENCODING 121
SWIDTH 44 0
DWIDTH 8 0
BBX 6 12 1 -3
BITMAP
CC
CC
CC
CC
CC
CC
78
78
30
30
60
60
ENDCHAR
STARTCHAR char122
ENCODING 122
SWIDTH 44 0
DWIDTH 8 0
BBX 6 10 1 -1
BITMAP
FC
FC
18
18
30
30
60
60
FC
FC
ENDCHAR
STARTCHAR char123
ENCODING 123
SWIDTH 44 0
DWIDTH 8 0
BBX 7 14 1 -1
BITMAP
1C
1E
32
30
30
30
E0
E0
30
30
30
32
1E
1C
ENDCHAR
STARTCHAR char124
ENCODING 124
SWIDTH 44 0
DWIDTH 8 0
BBX 8 16 0 -3
BITMAP
18
18
18
18
18
18
18
18
18
18
18
18
18
18
18
18
ENDCHAR
STARTCHAR char125
ENCODING 125
SWIDTH 44 0
DWIDTH 8 0
BBX 7 14 0 -1
BITMAP
70
F0
98
18
18
18
0E
0E
18
18
18
98
F0
70
ENDCHAR
STARTCHAR char126
ENCODING 126
SWIDTH 44 0
DWIDTH 8 0
BBX 7 4 0 9
BITMAP
72
72
9C
9C
ENDCHAR
STARTCHAR char127
ENCODING 127
SWIDTH 44 0
DWIDTH 8 0
BBX 8 14 0 -1
BITMAP
0F
0F
3C
3C
F0
F0
C3
C3
0F
0F
3C
3C
F0
F0
ENDCHAR
STARTCHAR char128
ENCODING 128
SWIDTH 44 0
DWIDTH 8 0
BBX 8 16 0 -3
BITMAP
CF
CF
E7
E7
C3
C3
99
99
81
81
99
99
99
99
FF
FF
ENDCHAR
STARTCHAR char129
ENCODING 129
SWIDTH 44 0
DWIDTH 8 0
BBX 8 16 0 -3
BITMAP
F3
F3
E7
E7
C3
C3
99
99
81
81
99
99
99
99
FF
FF
ENDCHAR
STARTCHAR char130
ENCODING 130
SWIDTH 44 0
DWIDTH 8 0
BBX 8 16 0 -3
BITMAP
E7
E7
99
99
C3
C3
99
99
81
81
99
99
99
99
FF
FF
ENDCHAR
STARTCHAR char131
ENCODING 131
SWIDTH 44 0
DWIDTH 8 0
BBX 8 16 0 -3
BITMAP
8E
8E
71
71
C3
C3
99
99
81
81
99
99
99
99
FF
FF
ENDCHAR
STARTCHAR char132
ENCODING 132
SWIDTH 44 0
DWIDTH 8 0
BBX 8 16 0 -3
BITMAP
99
99
FF
FF
C3
C3
99
99
81
81
99
99
99
99
FF
FF
ENDCHAR
STARTCHAR char133
ENCODING 133
SWIDTH 44 0
DWIDTH 8 0
BBX 8 16 0 -3
BITMAP
E7
E7
DB
DB
C3
C3
99
99
81
81
99
99
99
99
FF
FF
ENDCHAR
STARTCHAR char134
ENCODING 134
SWIDTH 44 0
DWIDTH 8 0
BBX 8 16 0 -3
BITMAP
E0
E0
C3
C3
C3
C3
90
90
83
83
33
33
30
30
FF
FF
ENDCHAR
STARTCHAR char135
ENCODING 135
SWIDTH 44 0
DWIDTH 8 0
BBX 8 16 0 -3
BITMAP
E1
E1
CF
CF
9F
9F
9F
9F
CF
CF
E1
E1
F3
F3
E7
E7
ENDCHAR
STARTCHAR char136
ENCODING 136
SWIDTH 44 0
DWIDTH 8 0
BBX 8 16 0 -3
BITMAP
CF
CF
E7
E7
81
81
9F
9F
87
87
9F
9F
81
81
FF
FF
ENDCHAR
STARTCHAR char137
ENCODING 137
SWIDTH 44 0
DWIDTH 8 0
BBX 8 16 0 -3
BITMAP
F3
F3
E7
E7
81
81
9F
9F
87
87
9F
9F
81
81
FF
FF
ENDCHAR
STARTCHAR char138
ENCODING 138
SWIDTH 44 0
DWIDTH 8 0
BBX 8 16 0 -3
BITMAP
E7
E7
99
99
81
81
9F
9F
87
87
9F
9F
81
81
FF
FF
ENDCHAR
STARTCHAR char139
ENCODING 139
SWIDTH 44 0
DWIDTH 8 0
BBX 8 16 0 -3
BITMAP
99
99
FF
FF
81
81
9F
9F
87
87
9F
9F
81
81
FF
FF
ENDCHAR
STARTCHAR char140
ENCODING 140
SWIDTH 44 0
DWIDTH 8 0
BBX 8 16 0 -3
BITMAP
CF
CF
E7
E7
C3
C3
E7
E7
E7
E7
E7
E7
C3
C3
FF
FF
ENDCHAR
STARTCHAR char141
ENCODING 141
SWIDTH 44 0
DWIDTH 8 0
BBX 8 16 0 -3
BITMAP
F3
F3
E7
E7
C3
C3
E7
E7
E7
E7
E7
E7
C3
C3
FF
FF
ENDCHAR
STARTCHAR char142
ENCODING 142
SWIDTH 44 0
DWIDTH 8 0
BBX 8 16 0 -3
BITMAP
E7
E7
99
99
C3
C3
E7
E7
E7
E7
E7
E7
C3
C3
FF
FF
ENDCHAR
STARTCHAR char143
ENCODING 143
SWIDTH 44 0
DWIDTH 8 0
BBX 8 16 0 -3
BITMAP
99
99
FF
FF
C3
C3
E7
E7
E7
E7
E7
E7
C3
C3
FF
FF
ENDCHAR
STARTCHAR char144
ENCODING 144
SWIDTH 44 0
DWIDTH 8 0
BBX 8 16 0 -3
BITMAP
87
87
93
93
99
99
09
09
99
99
93
93
87
87
FF
FF
ENDCHAR
STARTCHAR char145
ENCODING 145
SWIDTH 44 0
DWIDTH 8 0
BBX 8 16 0 -3
BITMAP
8E
8E
31
31
19
19
09
09
21
21
31
31
39
39
FF
FF
ENDCHAR
STARTCHAR char146
ENCODING 146
SWIDTH 44 0
DWIDTH 8 0
BBX 8 16 0 -3
BITMAP
CF
CF
E7
E7
C3
C3
99
99
99
99
99
99
C3
C3
FF
FF
ENDCHAR
STARTCHAR char147
ENCODING 147
SWIDTH 44 0
DWIDTH 8 0
BBX 8 16 0 -3
BITMAP
F3
F3
E7
E7
C3
C3
99
99
99
99
99
99
C3
C3
FF
FF
ENDCHAR
STARTCHAR char148
ENCODING 148
SWIDTH 44 0
DWIDTH 8 0
BBX 8 16 0 -3
BITMAP
E7
E7
99
99
C3
C3
99
99
99
99
99
99
C3
C3
FF
FF
ENDCHAR
STARTCHAR char149
ENCODING 149
SWIDTH 44 0
DWIDTH 8 0
BBX 8 16 0 -3
BITMAP
8E
8E
71
71
C3
C3
99
99
99
99
99
99
C3
C3
FF
FF
ENDCHAR
STARTCHAR char150
ENCODING 150
SWIDTH 44 0
DWIDTH 8 0
BBX 8 16 0 -3
BITMAP
3C
3C
C3
C3
99
99
99
99
99
99
99
99
C3
C3
FF
FF
ENDCHAR
STARTCHAR char151
ENCODING 151
SWIDTH 44 0
DWIDTH 8 0
BBX 8 16 0 -3
BITMAP
FF
FF
39
39
93
93
C7
C7
93
93
39
39
FF
FF
FF
FF
ENDCHAR
STARTCHAR char152
ENCODING 152
SWIDTH 44 0
DWIDTH 8 0
BBX 8 16 0 -3
BITMAP
C0
C0
99
99
91
91
81
81
89
89
99
99
03
03
FF
FF
ENDCHAR
STARTCHAR char153
ENCODING 153
SWIDTH 44 0
DWIDTH 8 0
BBX 8 16 0 -3
BITMAP
CF
CF
E7
E7
99
99
99
99
99
99
99
99
C3
C3
FF
FF
ENDCHAR
STARTCHAR char154
ENCODING 154
SWIDTH 44 0
DWIDTH 8 0
BBX 8 16 0 -3
BITMAP
F3
F3
E7
E7
99
99
99
99
99
99
99
99
C3
C3
FF
FF
ENDCHAR
STARTCHAR char155
ENCODING 155
SWIDTH 44 0
DWIDTH 8 0
BBX 8 16 0 -3
BITMAP
E7
E7
DB
DB
99
99
99
99
99
99
99
99
C3
C3
FF
FF
ENDCHAR
STARTCHAR char156
ENCODING 156
SWIDTH 44 0
DWIDTH 8 0
BBX 8 16 0 -3
BITMAP
99
99
FF
FF
99
99
99
99
99
99
99
99
C3
C3
FF
FF
ENDCHAR
STARTCHAR char157
ENCODING 157
SWIDTH 44 0
DWIDTH 8 0
BBX 8 16 0 -3
BITMAP
F9
F9
F7
F7
3C
3C
99
99
C3
C3
E7
E7
E7
E7
FF
FF
ENDCHAR
STARTCHAR char158
ENCODING 158
SWIDTH 44 0
DWIDTH 8 0
BBX 8 16 0 -3
BITMAP
3F
3F
3F
3F
03
03
39
39
03
03
3F
3F
3F
3F
FF
FF
ENDCHAR
STARTCHAR char159
ENCODING 159
SWIDTH 44 0
DWIDTH 8 0
BBX 8 16 0 -3
BITMAP
C3
C3
99
99
99
99
93
93
99
99
99
99
93
93
9F
9F
ENDCHAR
STARTCHAR char160
ENCODING 160
SWIDTH 44 0
DWIDTH 8 0
BBX 8 14 0 -1
BITMAP
FF
FF
FF
FF
FF
FF
FF
FF
FF
FF
FF
FF
FF
FF
ENDCHAR
STARTCHAR char161
ENCODING 161
SWIDTH 44 0
DWIDTH 8 0
BBX 2 14 3 -1
BITMAP
C0
C0
00
00
C0
C0
C0
C0
C0
C0
C0
C0
C0
C0
ENDCHAR
STARTCHAR char162
ENCODING 162
SWIDTH 44 0
DWIDTH 8 0
BBX 6 10 1 1
BITMAP
18
18
7C
7C
D8
D8
7C
7C
18
18
ENDCHAR
STARTCHAR char163
ENCODING 163
SWIDTH 44 0
DWIDTH 8 0
BBX 6 14 1 -1
BITMAP
38
38
6C
6C
60
60
F0
F0
60
60
60
60
FC
FC
ENDCHAR
STARTCHAR char164
ENCODING 164
SWIDTH 44 0
DWIDTH 8 0
BBX 6 10 1 3
BITMAP
84
84
78
78
CC
CC
78
78
84
84
ENDCHAR
STARTCHAR char165
ENCODING 165
SWIDTH 44 0
DWIDTH 8 0
BBX 8 14 0 -1
BITMAP
C3
C3
66
66
3C
3C
18
18
3C
3C
18
18
18
18
ENDCHAR
STARTCHAR char166
ENCODING 166
SWIDTH 44 0
DWIDTH 8 0
BBX 2 14 3 -1
BITMAP
C0
C0
C0
C0
C0
C0
00
00
C0
C0
C0
C0
C0
C0
ENDCHAR
STARTCHAR char167
ENCODING 167
SWIDTH 44 0
DWIDTH 8 0
BBX 6 14 1 -1
BITMAP
78
78
C0
C0
78
78
CC
CC
78
78
0C
0C
78
78
ENDCHAR
STARTCHAR char168
ENCODING 168
SWIDTH 44 0
DWIDTH 8 0
BBX 6 4 1 9
BITMAP
CC
CC
CC
CC
ENDCHAR
STARTCHAR char169
ENCODING 169
SWIDTH 44 0
DWIDTH 8 0
BBX 8 14 0 -1
BITMAP
7E
7E
81
81
9D
9D
B1
B1
9D
9D
81
81
7E
7E
ENDCHAR
STARTCHAR char170
ENCODING 170
SWIDTH 44 0
DWIDTH 8 0
BBX 6 12 1 1
BITMAP
38
38
48
48
88
88
78
78
00
00
FC
FC
ENDCHAR
STARTCHAR char171
ENCODING 171
SWIDTH 44 0
DWIDTH 8 0
BBX 8 10 0 1
BITMAP
33
33
66
66
CC
CC
66
66
33
33
ENDCHAR
STARTCHAR char172
ENCODING 172
SWIDTH 44 0
DWIDTH 8 0
BBX 8 4 0 9
BITMAP
FE
7F
03
03
ENDCHAR
STARTCHAR char173
ENCODING 173
SWIDTH 44 0
DWIDTH 8 0
BBX 8 2 0 5
BITMAP
FF
FF
ENDCHAR
STARTCHAR char174
ENCODING 174
SWIDTH 44 0
DWIDTH 8 0
BBX 8 16 0 -3
BITMAP
7E
7E
81
81
B9
B9
A5
A5
B9
B9
A5
A5
81
81
7E
7E
ENDCHAR
STARTCHAR char175
ENCODING 175
SWIDTH 44 0
DWIDTH 8 0
BBX 8 2 0 11
BITMAP
FF
FF
ENDCHAR
STARTCHAR char176
ENCODING 176
SWIDTH 44 0
DWIDTH 8 0
BBX 6 6 1 7
BITMAP
78
78
CC
CC
78
78
ENDCHAR
STARTCHAR char177
ENCODING 177
SWIDTH 44 0
DWIDTH 8 0
BBX 6 14 1 -1
BITMAP
30
30
30
30
FC
FC
30
30
30
30
00
00
FC
FC
ENDCHAR
STARTCHAR char178
ENCODING 178
SWIDTH 44 0
DWIDTH 8 0
BBX 5 10 1 3
BITMAP
F0
F0
18
18
30
30
60
60
F8
F8
ENDCHAR
STARTCHAR char179
ENCODING 179
SWIDTH 44 0
DWIDTH 8 0
BBX 5 10 1 3
BITMAP
F0
F0
18
18
30
30
18
18
F0
F0
ENDCHAR
STARTCHAR char180
ENCODING 180
SWIDTH 44 0
DWIDTH 8 0
BBX 4 6 1 7
BITMAP
30
30
60
60
C0
C0
ENDCHAR
STARTCHAR char181
ENCODING 181
SWIDTH 44 0
DWIDTH 8 0
BBX 7 12 1 -3
BITMAP
CC
CC
CC
CC
CC
CC
CC
CC
FE
FE
C0
C0
ENDCHAR
STARTCHAR char182
ENCODING 182
SWIDTH 44 0
DWIDTH 8 0
BBX 6 14 1 -1
BITMAP
7C
7C
F4
F4
F4
F4
74
74
14
14
14
14
14
14
ENDCHAR
STARTCHAR char183
ENCODING 183
SWIDTH 44 0
DWIDTH 8 0
BBX 2 4 3 7
BITMAP
C0
C0
C0
C0
ENDCHAR
STARTCHAR char184
ENCODING 184
SWIDTH 44 0
DWIDTH 8 0
BBX 3 4 2 -3
BITMAP
60
60
C0
C0
ENDCHAR
STARTCHAR char185
ENCODING 185
SWIDTH 44 0
DWIDTH 8 0
BBX 3 10 1 3
BITMAP
60
60
E0
E0
60
60
60
60
60
60
ENDCHAR
STARTCHAR char186
ENCODING 186
SWIDTH 44 0
DWIDTH 8 0
BBX 5 12 1 1
BITMAP
70
70
88
88
88
88
70
70
00
00
F8
F8
ENDCHAR
STARTCHAR char187
ENCODING 187
SWIDTH 44 0
DWIDTH 8 0
BBX 8 10 0 1
BITMAP
CC
CC
66
66
33
33
66
66
CC
CC
ENDCHAR
STARTCHAR char188
ENCODING 188
SWIDTH 44 0
DWIDTH 8 0
BBX 8 16 0 -3
BITMAP
40
40
C6
C6
4C
4C
58
58
30
32
62
66
C6
CF
02
02
ENDCHAR
STARTCHAR char189
ENCODING 189
SWIDTH 44 0
DWIDTH 8 0
BBX 8 16 0 -3
BITMAP
40
40
C6
C6
4C
4C
58
58
3E
3E
62
62
C4
C4
0E
0E
ENDCHAR
STARTCHAR char190
ENCODING 190
SWIDTH 44 0
DWIDTH 8 0
BBX 8 16 0 -3
BITMAP
C0
C0
23
23
66
66
2C
2C
D8
1A
32
36
66
6F
C2
C2
ENDCHAR
STARTCHAR char191
ENCODING 191
SWIDTH 44 0
DWIDTH 8 0
BBX 6 14 1 -1
BITMAP
30
30
00
00
30
30
60
60
C0
C0
CC
CC
78
78
ENDCHAR
STARTCHAR char192
ENCODING 192
SWIDTH 44 0
DWIDTH 8 0
BBX 6 14 1 -1
BITMAP
60
60
30
30
78
78
CC
CC
FC
FC
CC
CC
CC
CC
ENDCHAR
STARTCHAR char193
ENCODING 193
SWIDTH 44 0
DWIDTH 8 0
BBX 6 14 1 -1
BITMAP
18
18
30
30
78
78
CC
CC
FC
FC
CC
CC
CC
CC
ENDCHAR
STARTCHAR char194
ENCODING 194
SWIDTH 44 0
DWIDTH 8 0
BBX 6 14 1 -1
BITMAP
30
30
CC
CC
78
78
CC
CC
FC
FC
CC
CC
CC
CC
ENDCHAR
STARTCHAR char195
ENCODING 195
SWIDTH 44 0
DWIDTH 8 0
BBX 8 14 0 -1
BITMAP
71
71
8E
8E
3C
3C
66
66
7E
7E
66
66
66
66
ENDCHAR
STARTCHAR char196
ENCODING 196
SWIDTH 44 0
DWIDTH 8 0
BBX 6 14 1 -1
BITMAP
CC
CC
00
00
78
78
CC
CC
FC
FC
CC
CC
CC
CC
ENDCHAR
STARTCHAR char197
ENCODING 197
SWIDTH 44 0
DWIDTH 8 0
BBX 6 14 1 -1
BITMAP
30
30
48
48
78
78
CC
CC
FC
FC
CC
CC
CC
CC
ENDCHAR
STARTCHAR char198
ENCODING 198
SWIDTH 44 0
DWIDTH 8 0
BBX 8 14 0 -1
BITMAP
1F
1F
3C
3C
3C
3C
6F
6F
7C
7C
CC
CC
CF
CF
ENDCHAR
STARTCHAR char199
ENCODING 199
SWIDTH 44 0
DWIDTH 8 0
BBX 8 16 0 -3
BITMAP
1E
1E
30
30
60
60
60
60
30
30
1E
1E
0C
0C
18
18
ENDCHAR
STARTCHAR char200
ENCODING 200
SWIDTH 44 0
DWIDTH 8 0
BBX 6 14 1 -1
BITMAP
60
60
30
30
FC
FC
C0
C0
F0
F0
C0
C0
FC
FC
ENDCHAR
STARTCHAR char201
ENCODING 201
SWIDTH 44 0
DWIDTH 8 0
BBX 6 14 1 -1
BITMAP
18
18
30
30
FC
FC
C0
C0
F0
F0
C0
C0
FC
FC
ENDCHAR
STARTCHAR char202
ENCODING 202
SWIDTH 44 0
DWIDTH 8 0
BBX 6 14 1 -1
BITMAP
30
30
CC
CC
FC
FC
C0
C0
F0
F0
C0
C0
FC
FC
ENDCHAR
STARTCHAR char203
ENCODING 203
SWIDTH 44 0
DWIDTH 8 0
BBX 6 14 1 -1
BITMAP
CC
CC
00
00
FC
FC
C0
C0
F0
F0
C0
C0
FC
FC
ENDCHAR
STARTCHAR char204
ENCODING 204
SWIDTH 44 0
DWIDTH 8 0
BBX 4 14 2 -1
BITMAP
C0
C0
60
60
F0
F0
60
60
60
60
60
60
F0
F0
ENDCHAR
STARTCHAR char205
ENCODING 205
SWIDTH 44 0
DWIDTH 8 0
BBX 4 14 2 -1
BITMAP
30
30
60
60
F0
F0
60
60
60
60
60
60
F0
F0
ENDCHAR
STARTCHAR char206
ENCODING 206
SWIDTH 44 0
DWIDTH 8 0
BBX 6 14 1 -1
BITMAP
30
30
CC
CC
78
78
30
30
30
30
30
30
78
78
ENDCHAR
STARTCHAR char207
ENCODING 207
SWIDTH 44 0
DWIDTH 8 0
BBX 6 14 1 -1
BITMAP
CC
CC
00
00
78
78
30
30
30
30
30
30
78
78
ENDCHAR
STARTCHAR char208
ENCODING 208
SWIDTH 44 0
DWIDTH 8 0
BBX 7 14 0 -1
BITMAP
78
78
6C
6C
66
66
F6
F6
66
66
6C
6C
78
78
ENDCHAR
STARTCHAR char209
ENCODING 209
SWIDTH 44 0
DWIDTH 8 0
BBX 8 14 0 -1
BITMAP
71
71
CE
CE
E6
E6
F6
F6
DE
DE
CE
CE
C6
C6
ENDCHAR
STARTCHAR char210
ENCODING 210
SWIDTH 44 0
DWIDTH 8 0
BBX 6 14 1 -1
BITMAP
60
60
30
30
78
78
CC
CC
CC
CC
CC
CC
78
78
ENDCHAR
STARTCHAR char211
ENCODING 211
SWIDTH 44 0
DWIDTH 8 0
BBX 6 14 1 -1
BITMAP
18
18
30
30
78
78
CC
CC
CC
CC
CC
CC
78
78
ENDCHAR
STARTCHAR char212
ENCODING 212
SWIDTH 44 0
DWIDTH 8 0
BBX 6 14 1 -1
BITMAP
30
30
CC
CC
78
78
CC
CC
CC
CC
CC
CC
78
78
ENDCHAR
STARTCHAR char213
ENCODING 213
SWIDTH 44 0
DWIDTH 8 0
BBX 8 14 0 -1
BITMAP
71
71
8E
8E
3C
3C
66
66
66
66
66
66
3C
3C
ENDCHAR
STARTCHAR char214
ENCODING 214
SWIDTH 44 0
DWIDTH 8 0
BBX 8 14 0 -1
BITMAP
C3
C3
3C
3C
66
66
66
66
66
66
66
66
3C
3C
ENDCHAR
STARTCHAR char215
ENCODING 215
SWIDTH 44 0
DWIDTH 8 0
BBX 7 10 0 1
BITMAP
C6
C6
6C
6C
38
38
6C
6C
C6
C6
ENDCHAR
STARTCHAR char216
ENCODING 216
SWIDTH 44 0
DWIDTH 8 0
BBX 8 14 0 -1
BITMAP
3F
3F
66
66
6E
6E
7E
7E
76
76
66
66
FC
FC
ENDCHAR
STARTCHAR char217
ENCODING 217
SWIDTH 44 0
DWIDTH 8 0
BBX 6 14 1 -1
BITMAP
60
60
30
30
CC
CC
CC
CC
CC
CC
CC
CC
78
78
ENDCHAR
STARTCHAR char218
ENCODING 218
SWIDTH 44 0
DWIDTH 8 0
BBX 6 14 1 -1
BITMAP
18
18
30
30
CC
CC
CC
CC
CC
CC
CC
CC
78
78
ENDCHAR
STARTCHAR char219
ENCODING 219
SWIDTH 44 0
DWIDTH 8 0
BBX 6 14 1 -1
BITMAP
30
30
48
48
CC
CC
CC
CC
CC
CC
CC
CC
78
78
ENDCHAR
STARTCHAR char220
ENCODING 220
SWIDTH 44 0
DWIDTH 8 0
BBX 6 14 1 -1
BITMAP
CC
CC
00
00
CC
CC
CC
CC
CC
CC
CC
CC
78
78
ENDCHAR
STARTCHAR char221
ENCODING 221
SWIDTH 44 0
DWIDTH 8 0
BBX 8 14 0 -1
BITMAP
06
06
08
08
C3
C3
66
66
3C
3C
18
18
18
18
ENDCHAR
STARTCHAR char222
ENCODING 222
SWIDTH 44 0
DWIDTH 8 0
BBX 7 14 0 -1
BITMAP
C0
C0
C0
C0
FC
FC
C6
C6
FC
FC
C0
C0
C0
C0
ENDCHAR
STARTCHAR char223
ENCODING 223
SWIDTH 44 0
DWIDTH 8 0
BBX 8 16 0 -3
BITMAP
3C
3C
66
66
66
66
6C
6C
66
66
66
66
6C
6C
60
60
ENDCHAR
STARTCHAR char224
ENCODING 224
SWIDTH 44 0
DWIDTH 8 0
BBX 6 14 1 -1
BITMAP
60
60
30
30
78
78
0C
0C
7C
7C
CC
CC
7C
7C
ENDCHAR
STARTCHAR char225
ENCODING 225
SWIDTH 44 0
DWIDTH 8 0
BBX 6 14 1 -1
BITMAP
18
18
30
30
78
78
0C
0C
7C
7C
CC
CC
7C
7C
ENDCHAR
STARTCHAR char226
ENCODING 226
SWIDTH 44 0
DWIDTH 8 0
BBX 6 14 1 -1
BITMAP
30
30
CC
CC
78
78
0C
0C
7C
7C
CC
CC
7C
7C
ENDCHAR
STARTCHAR char227
ENCODING 227
SWIDTH 44 0
DWIDTH 8 0
BBX 8 14 0 -1
BITMAP
71
71
8E
8E
3C
3C
06
06
3E
3E
66
66
3E
3E
ENDCHAR
STARTCHAR char228
ENCODING 228
SWIDTH 44 0
DWIDTH 8 0
BBX 6 14 1 -1
BITMAP
CC
CC
00
00
78
78
0C
0C
7C
7C
CC
CC
7C
7C
ENDCHAR
STARTCHAR char229
ENCODING 229
SWIDTH 44 0
DWIDTH 8 0
BBX 6 14 1 -1
BITMAP
30
30
48
48
78
78
0C
0C
7C
7C
CC
CC
7C
7C
ENDCHAR
STARTCHAR char230
ENCODING 230
SWIDTH 44 0
DWIDTH 8 0
BBX 8 10 0 -1
BITMAP
7E
7E
1B
1B
7F
7F
D8
D8
77
77
ENDCHAR
STARTCHAR char231
ENCODING 231
SWIDTH 44 0
DWIDTH 8 0
BBX 5 12 1 -3
BITMAP
78
78
C0
C0
C0
C0
C0
C0
78
78
30
30
ENDCHAR
STARTCHAR char232
ENCODING 232
SWIDTH 44 0
DWIDTH 8 0
BBX 6 14 1 -1
BITMAP
60
60
30
30
78
78
CC
CC
FC
FC
C0
C0
78
78
ENDCHAR
STARTCHAR char233
ENCODING 233
SWIDTH 44 0
DWIDTH 8 0
BBX 6 14 1 -1
BITMAP
18
18
30
30
78
78
CC
CC
FC
FC
C0
C0
78
78
ENDCHAR
STARTCHAR char234
ENCODING 234
SWIDTH 44 0
DWIDTH 8 0
BBX 6 14 1 -1
BITMAP
30
30
CC
CC
78
78
CC
CC
FC
FC
C0
C0
78
78
ENDCHAR
STARTCHAR char235
ENCODING 235
SWIDTH 44 0
DWIDTH 8 0
BBX 6 14 1 -1
BITMAP
CC
CC
00
00
78
78
CC
CC
FC
FC
C0
C0
78
78
ENDCHAR
STARTCHAR char236
ENCODING 236
SWIDTH 44 0
DWIDTH 8 0
BBX 4 14 2 -1
BITMAP
C0
C0
60
60
00
00
60
60
60
60
60
60
30
30
ENDCHAR
STARTCHAR char237
ENCODING 237
SWIDTH 44 0
DWIDTH 8 0
BBX 3 14 3 -1
BITMAP
60
60
C0
C0
00
00
C0
C0
C0
C0
C0
C0
60
60
ENDCHAR
STARTCHAR char238
ENCODING 238
SWIDTH 44 0
DWIDTH 8 0
BBX 6 14 1 -1
BITMAP
30
30
CC
CC
00
00
30
30
30
30
30
30
18
18
ENDCHAR
STARTCHAR char239
ENCODING 239
SWIDTH 44 0
DWIDTH 8 0
BBX 6 12 1 -1
BITMAP
CC
CC
00
00
30
30
30
30
30
30
18
18
ENDCHAR
STARTCHAR char240
ENCODING 240
SWIDTH 44 0
DWIDTH 8 0
BBX 7 14 0 -1
BITMAP
60
60
FC
FC
18
18
3C
3C
66
66
66
66
3C
3C
ENDCHAR
STARTCHAR char241
ENCODING 241
SWIDTH 44 0
DWIDTH 8 0
BBX 8 14 0 -1
BITMAP
71
71
8E
8E
00
00
7C
7C
66
66
66
66
66
66
ENDCHAR
STARTCHAR char242
ENCODING 242
SWIDTH 44 0
DWIDTH 8 0
BBX 6 14 1 -1
BITMAP
60
60
30
30
00
00
78
78
CC
CC
CC
CC
78
78
ENDCHAR
STARTCHAR char243
ENCODING 243
SWIDTH 44 0
DWIDTH 8 0
BBX 6 14 1 -1
BITMAP
18
18
30
30
00
00
78
78
CC
CC
CC
CC
78
78
ENDCHAR
STARTCHAR char244
ENCODING 244
SWIDTH 44 0
DWIDTH 8 0
BBX 6 14 1 -1
BITMAP
30
30
CC
CC
00
00
78
78
CC
CC
CC
CC
78
78
ENDCHAR
STARTCHAR char245
ENCODING 245
SWIDTH 44 0
DWIDTH 8 0
BBX 8 14 0 -1
BITMAP
71
71
8E
8E
00
00
3C
3C
66
66
66
66
3C
3C
ENDCHAR
STARTCHAR char246
ENCODING 246
SWIDTH 44 0
DWIDTH 8 0
BBX 6 12 1 -1
BITMAP
CC
CC
00
00
78
78
CC
CC
CC
CC
78
78
ENDCHAR
STARTCHAR char247
ENCODING 247
SWIDTH 44 0
DWIDTH 8 0
BBX 6 10 1 1
BITMAP
30
30
00
00
FC
FC
00
00
30
30
ENDCHAR
STARTCHAR char248
ENCODING 248
SWIDTH 44 0
DWIDTH 8 0
BBX 7 14 0 -3
BITMAP
02
02
7C
7C
CE
CE
D6
D6
E6
E6
7C
7C
80
80
ENDCHAR
STARTCHAR char249
ENCODING 249
SWIDTH 44 0
DWIDTH 8 0
BBX 6 14 1 -1
BITMAP
60
60
30
30
00
00
CC
CC
CC
CC
CC
CC
7C
7C
ENDCHAR
STARTCHAR char250
ENCODING 250
SWIDTH 44 0
DWIDTH 8 0
BBX 6 14 1 -1
BITMAP
18
18
30
30
00
00
CC
CC
CC
CC
CC
CC
7C
7C
ENDCHAR
STARTCHAR char251
ENCODING 251
SWIDTH 44 0
DWIDTH 8 0
BBX 6 14 1 -1
BITMAP
30
30
CC
CC
00
00
CC
CC
CC
CC
CC
CC
7C
7C
ENDCHAR
STARTCHAR char252
ENCODING 252
SWIDTH 44 0
DWIDTH 8 0
BBX 6 12 1 -1
BITMAP
CC
CC
00
00
CC
CC
CC
CC
CC
CC
7C
7C
ENDCHAR
STARTCHAR char253
ENCODING 253
SWIDTH 44 0
DWIDTH 8 0
BBX 8 16 0 -3
BITMAP
0C
0C
18
18
00
00
66
66
66
66
3C
3C
18
18
30
30
ENDCHAR
STARTCHAR char254
ENCODING 254
SWIDTH 44 0
DWIDTH 8 0
BBX 8 16 0 -3
BITMAP
60
60
60
60
7C
7C
66
66
66
66
7C
7C
60
60
60
60
ENDCHAR
STARTCHAR char255
ENCODING 255
SWIDTH 44 0
DWIDTH 8 0
BBX 6 14 1 -3
BITMAP
CC
CC
00
00
CC
CC
CC
CC
78
78
30
30
60
60
ENDCHAR
ENDFONT
